<mxfile host="Electron" modified="2023-11-18T11:05:45.727Z" agent="Mozilla/5.0 (X11; Linux x86_64) AppleWebKit/537.36 (KHTML, like Gecko) draw.io/22.0.3 Chrome/114.0.5735.289 Electron/25.9.3 Safari/537.36" etag="dYF-lpDFM-ez7kzbtOVo" version="22.0.3" type="device" pages="3">
  <diagram id="eZXPIrArGWBGLFVNpYvM" name="Database ER">
    <mxGraphModel dx="2314" dy="1192" grid="1" gridSize="10" guides="0" tooltips="1" connect="1" arrows="1" fold="1" page="1" pageScale="1" pageWidth="4681" pageHeight="3300" math="0" shadow="0">
      <root>
        <mxCell id="0" />
        <mxCell id="1" parent="0" />
        <mxCell id="-WAaoJ8sJ4abrLc4d5gt-1" value="" style="rounded=0;whiteSpace=wrap;html=1;" parent="1" vertex="1">
          <mxGeometry x="760" y="760" width="2360" height="1240" as="geometry" />
        </mxCell>
        <mxCell id="M3f08CKbd2f47ijuFytJ-122" style="edgeStyle=orthogonalEdgeStyle;rounded=0;orthogonalLoop=1;jettySize=auto;html=1;endArrow=ERzeroToOne;endFill=0;startArrow=ERzeroToMany;startFill=0;endSize=10;startSize=10;" parent="1" edge="1">
          <mxGeometry relative="1" as="geometry">
            <mxPoint x="2010" y="1500" as="sourcePoint" />
            <mxPoint x="2150" y="1500" as="targetPoint" />
            <Array as="points">
              <mxPoint x="2080" y="1500" />
              <mxPoint x="2080" y="1500" />
            </Array>
          </mxGeometry>
        </mxCell>
        <mxCell id="M3f08CKbd2f47ijuFytJ-123" value="&amp;nbsp;updates&amp;nbsp;" style="edgeLabel;html=1;align=center;verticalAlign=middle;resizable=0;points=[];" parent="M3f08CKbd2f47ijuFytJ-122" vertex="1" connectable="0">
          <mxGeometry x="-0.0027" relative="1" as="geometry">
            <mxPoint as="offset" />
          </mxGeometry>
        </mxCell>
        <mxCell id="7b05wyDqm9bEw5o-YQ6S-1" value="Resource" style="rounded=0;whiteSpace=wrap;html=1;fontSize=18;fontStyle=1;fillColor=none;" parent="1" vertex="1">
          <mxGeometry x="1260" y="1040" width="200" height="40" as="geometry" />
        </mxCell>
        <mxCell id="7b05wyDqm9bEw5o-YQ6S-2" value="&lt;ul style=&quot;font-size: 14px;&quot;&gt;&lt;li style=&quot;font-size: 14px;&quot;&gt;id&lt;/li&gt;&lt;li style=&quot;font-size: 14px;&quot;&gt;creation date&lt;/li&gt;&lt;li style=&quot;font-size: 14px;&quot;&gt;last modified&lt;/li&gt;&lt;li style=&quot;font-size: 14px;&quot;&gt;version&lt;/li&gt;&lt;li style=&quot;font-size: 14px;&quot;&gt;report count&lt;/li&gt;&lt;li style=&quot;font-size: 14px;&quot;&gt;status&lt;/li&gt;&lt;li&gt;name&lt;/li&gt;&lt;li style=&quot;font-size: 14px;&quot;&gt;upvotes&lt;/li&gt;&lt;li style=&quot;font-size: 14px;&quot;&gt;downvotes&lt;/li&gt;&lt;li style=&quot;font-size: 14px;&quot;&gt;preview&lt;/li&gt;&lt;li style=&quot;font-size: 14px;&quot;&gt;markup&lt;/li&gt;&lt;/ul&gt;" style="rounded=0;whiteSpace=wrap;html=1;align=left;fontSize=14;fillColor=none;verticalAlign=middle;" parent="1" vertex="1">
          <mxGeometry x="1260" y="1080" width="200" height="200" as="geometry" />
        </mxCell>
        <mxCell id="7b05wyDqm9bEw5o-YQ6S-3" value="Media" style="rounded=0;whiteSpace=wrap;html=1;fontSize=18;fontStyle=1;fillColor=none;" parent="1" vertex="1">
          <mxGeometry x="1260" y="1720" width="200" height="40" as="geometry" />
        </mxCell>
        <mxCell id="7b05wyDqm9bEw5o-YQ6S-4" value="&lt;ul style=&quot;font-size: 14px;&quot;&gt;&lt;li style=&quot;font-size: 14px;&quot;&gt;id&lt;/li&gt;&lt;li style=&quot;font-size: 14px;&quot;&gt;creation date&lt;/li&gt;&lt;li style=&quot;font-size: 14px;&quot;&gt;last modified&lt;/li&gt;&lt;li style=&quot;font-size: 14px;&quot;&gt;version&lt;/li&gt;&lt;li style=&quot;font-size: 14px;&quot;&gt;report count&lt;/li&gt;&lt;li style=&quot;font-size: 14px;&quot;&gt;status&lt;/li&gt;&lt;li&gt;name&lt;/li&gt;&lt;li style=&quot;font-size: 14px;&quot;&gt;upvotes&lt;/li&gt;&lt;li style=&quot;font-size: 14px;&quot;&gt;downvotes&lt;/li&gt;&lt;li style=&quot;font-size: 14px;&quot;&gt;data&lt;/li&gt;&lt;/ul&gt;" style="rounded=0;whiteSpace=wrap;html=1;align=left;fontSize=14;fillColor=none;verticalAlign=middle;" parent="1" vertex="1">
          <mxGeometry x="1260" y="1760" width="200" height="200" as="geometry" />
        </mxCell>
        <mxCell id="7b05wyDqm9bEw5o-YQ6S-5" style="edgeStyle=orthogonalEdgeStyle;rounded=0;orthogonalLoop=1;jettySize=auto;html=1;endArrow=ERzeroToMany;endFill=0;startArrow=ERzeroToMany;startFill=0;endSize=10;startSize=10;" parent="1" edge="1">
          <mxGeometry relative="1" as="geometry">
            <mxPoint x="1360" y="1710" as="sourcePoint" />
            <mxPoint x="1360.08" y="1290" as="targetPoint" />
            <Array as="points">
              <mxPoint x="1360.08" y="1320" />
              <mxPoint x="1360.08" y="1320" />
            </Array>
          </mxGeometry>
        </mxCell>
        <mxCell id="7b05wyDqm9bEw5o-YQ6S-6" value="&amp;nbsp;composed&amp;nbsp;" style="edgeLabel;html=1;align=center;verticalAlign=middle;resizable=0;points=[];" parent="7b05wyDqm9bEw5o-YQ6S-5" vertex="1" connectable="0">
          <mxGeometry x="-0.0103" y="-1" relative="1" as="geometry">
            <mxPoint as="offset" />
          </mxGeometry>
        </mxCell>
        <mxCell id="7b05wyDqm9bEw5o-YQ6S-7" value="Types" style="rounded=0;whiteSpace=wrap;html=1;fontSize=18;fontStyle=1;fillColor=none;" parent="1" vertex="1">
          <mxGeometry x="1440" y="1430" width="200" height="40" as="geometry" />
        </mxCell>
        <mxCell id="7b05wyDqm9bEw5o-YQ6S-8" value="&lt;ul style=&quot;font-size: 14px;&quot;&gt;&lt;li style=&quot;font-size: 14px;&quot;&gt;id&lt;/li&gt;&lt;li&gt;creation date&lt;/li&gt;&lt;li&gt;last modified&lt;/li&gt;&lt;li style=&quot;font-size: 14px;&quot;&gt;name&lt;/li&gt;&lt;li style=&quot;font-size: 14px;&quot;&gt;domain&lt;/li&gt;&lt;/ul&gt;" style="rounded=0;whiteSpace=wrap;html=1;align=left;fontSize=14;fillColor=none;" parent="1" vertex="1">
          <mxGeometry x="1440" y="1470" width="200" height="100" as="geometry" />
        </mxCell>
        <mxCell id="7b05wyDqm9bEw5o-YQ6S-9" value="Tag" style="rounded=0;whiteSpace=wrap;html=1;fontSize=18;fontStyle=1;fillColor=none;" parent="1" vertex="1">
          <mxGeometry x="1080" y="1430" width="200" height="40" as="geometry" />
        </mxCell>
        <mxCell id="7b05wyDqm9bEw5o-YQ6S-10" value="&lt;ul style=&quot;font-size: 14px;&quot;&gt;&lt;li&gt;id&lt;/li&gt;&lt;li&gt;creation date&lt;/li&gt;&lt;li&gt;last modified&lt;/li&gt;&lt;li&gt;name&lt;/li&gt;&lt;li&gt;domain&lt;/li&gt;&lt;/ul&gt;" style="rounded=0;whiteSpace=wrap;html=1;align=left;fontSize=14;fillColor=none;" parent="1" vertex="1">
          <mxGeometry x="1080" y="1470" width="200" height="100" as="geometry" />
        </mxCell>
        <mxCell id="7b05wyDqm9bEw5o-YQ6S-11" value="Link" style="rounded=0;whiteSpace=wrap;html=1;fontSize=18;fontStyle=1;fillColor=none;" parent="1" vertex="1">
          <mxGeometry x="1260" y="800" width="200" height="40" as="geometry" />
        </mxCell>
        <mxCell id="7b05wyDqm9bEw5o-YQ6S-12" value="&lt;ul style=&quot;font-size: 14px;&quot;&gt;&lt;li style=&quot;font-size: 14px;&quot;&gt;direction&lt;/li&gt;&lt;/ul&gt;" style="rounded=0;whiteSpace=wrap;html=1;align=left;fontSize=14;fillColor=none;verticalAlign=middle;" parent="1" vertex="1">
          <mxGeometry x="1260" y="840" width="200" height="40" as="geometry" />
        </mxCell>
        <mxCell id="7b05wyDqm9bEw5o-YQ6S-13" style="edgeStyle=orthogonalEdgeStyle;rounded=0;orthogonalLoop=1;jettySize=auto;html=1;endArrow=ERmandOne;endFill=0;startArrow=ERzeroToMany;startFill=0;endSize=10;startSize=10;" parent="1" edge="1">
          <mxGeometry relative="1" as="geometry">
            <mxPoint x="1320" y="890" as="sourcePoint" />
            <mxPoint x="1320" y="1030" as="targetPoint" />
            <Array as="points">
              <mxPoint x="1320" y="930" />
              <mxPoint x="1320" y="930" />
            </Array>
          </mxGeometry>
        </mxCell>
        <mxCell id="7b05wyDqm9bEw5o-YQ6S-14" value="&amp;nbsp;has&amp;nbsp;" style="edgeLabel;html=1;align=center;verticalAlign=middle;resizable=0;points=[];" parent="7b05wyDqm9bEw5o-YQ6S-13" vertex="1" connectable="0">
          <mxGeometry x="0.0057" relative="1" as="geometry">
            <mxPoint as="offset" />
          </mxGeometry>
        </mxCell>
        <mxCell id="7b05wyDqm9bEw5o-YQ6S-15" style="edgeStyle=orthogonalEdgeStyle;rounded=0;orthogonalLoop=1;jettySize=auto;html=1;endArrow=ERmandOne;endFill=0;startArrow=ERzeroToMany;startFill=0;endSize=10;startSize=10;" parent="1" edge="1">
          <mxGeometry relative="1" as="geometry">
            <mxPoint x="1400" y="890" as="sourcePoint" />
            <mxPoint x="1400" y="1030" as="targetPoint" />
            <Array as="points">
              <mxPoint x="1400" y="930" />
              <mxPoint x="1400" y="930" />
            </Array>
          </mxGeometry>
        </mxCell>
        <mxCell id="7b05wyDqm9bEw5o-YQ6S-16" value="&amp;nbsp;has&amp;nbsp;" style="edgeLabel;html=1;align=center;verticalAlign=middle;resizable=0;points=[];" parent="7b05wyDqm9bEw5o-YQ6S-15" vertex="1" connectable="0">
          <mxGeometry x="0.0057" relative="1" as="geometry">
            <mxPoint as="offset" />
          </mxGeometry>
        </mxCell>
        <mxCell id="7b05wyDqm9bEw5o-YQ6S-20" style="edgeStyle=orthogonalEdgeStyle;rounded=0;orthogonalLoop=1;jettySize=auto;html=1;endArrow=ERzeroToMany;endFill=0;startArrow=ERzeroToMany;startFill=0;endSize=10;startSize=10;" parent="1" edge="1">
          <mxGeometry relative="1" as="geometry">
            <mxPoint x="1180" y="1420" as="sourcePoint" />
            <mxPoint x="1320" y="1290" as="targetPoint" />
            <Array as="points">
              <mxPoint x="1180" y="1360" />
              <mxPoint x="1320" y="1360" />
            </Array>
          </mxGeometry>
        </mxCell>
        <mxCell id="7b05wyDqm9bEw5o-YQ6S-21" value="&amp;nbsp;categorized&amp;nbsp;" style="edgeLabel;html=1;align=center;verticalAlign=middle;resizable=0;points=[];" parent="7b05wyDqm9bEw5o-YQ6S-20" vertex="1" connectable="0">
          <mxGeometry x="-0.0103" y="-1" relative="1" as="geometry">
            <mxPoint as="offset" />
          </mxGeometry>
        </mxCell>
        <mxCell id="7b05wyDqm9bEw5o-YQ6S-22" style="edgeStyle=orthogonalEdgeStyle;rounded=0;orthogonalLoop=1;jettySize=auto;html=1;endArrow=ERzeroToMany;endFill=0;startArrow=ERzeroToMany;startFill=0;endSize=10;startSize=10;" parent="1" edge="1">
          <mxGeometry relative="1" as="geometry">
            <mxPoint x="1320" y="1710" as="sourcePoint" />
            <mxPoint x="1180" y="1580" as="targetPoint" />
            <Array as="points">
              <mxPoint x="1320" y="1640" />
              <mxPoint x="1180" y="1640" />
            </Array>
          </mxGeometry>
        </mxCell>
        <mxCell id="7b05wyDqm9bEw5o-YQ6S-23" value="&amp;nbsp;categorized&amp;nbsp;" style="edgeLabel;html=1;align=center;verticalAlign=middle;resizable=0;points=[];" parent="7b05wyDqm9bEw5o-YQ6S-22" vertex="1" connectable="0">
          <mxGeometry x="-0.0103" y="-1" relative="1" as="geometry">
            <mxPoint as="offset" />
          </mxGeometry>
        </mxCell>
        <mxCell id="7b05wyDqm9bEw5o-YQ6S-24" style="edgeStyle=orthogonalEdgeStyle;rounded=0;orthogonalLoop=1;jettySize=auto;html=1;endArrow=ERzeroToMany;endFill=0;startArrow=ERmandOne;startFill=0;endSize=10;startSize=10;" parent="1" edge="1">
          <mxGeometry relative="1" as="geometry">
            <mxPoint x="1540" y="1420" as="sourcePoint" />
            <mxPoint x="1400" y="1290" as="targetPoint" />
            <Array as="points">
              <mxPoint x="1540" y="1360" />
              <mxPoint x="1400" y="1360" />
            </Array>
          </mxGeometry>
        </mxCell>
        <mxCell id="7b05wyDqm9bEw5o-YQ6S-25" value="&amp;nbsp;is a&amp;nbsp;" style="edgeLabel;html=1;align=center;verticalAlign=middle;resizable=0;points=[];" parent="7b05wyDqm9bEw5o-YQ6S-24" vertex="1" connectable="0">
          <mxGeometry x="-0.0061" y="1" relative="1" as="geometry">
            <mxPoint as="offset" />
          </mxGeometry>
        </mxCell>
        <mxCell id="7b05wyDqm9bEw5o-YQ6S-26" style="edgeStyle=orthogonalEdgeStyle;rounded=0;orthogonalLoop=1;jettySize=auto;html=1;endArrow=ERzeroToMany;endFill=0;startArrow=ERmandOne;startFill=0;endSize=10;startSize=10;" parent="1" edge="1">
          <mxGeometry relative="1" as="geometry">
            <mxPoint x="1540" y="1580" as="sourcePoint" />
            <mxPoint x="1400" y="1710" as="targetPoint" />
            <Array as="points">
              <mxPoint x="1540" y="1640" />
              <mxPoint x="1400" y="1640" />
            </Array>
          </mxGeometry>
        </mxCell>
        <mxCell id="7b05wyDqm9bEw5o-YQ6S-27" value="&amp;nbsp;is a&amp;nbsp;" style="edgeLabel;html=1;align=center;verticalAlign=middle;resizable=0;points=[];" parent="7b05wyDqm9bEw5o-YQ6S-26" vertex="1" connectable="0">
          <mxGeometry x="-0.0061" y="1" relative="1" as="geometry">
            <mxPoint as="offset" />
          </mxGeometry>
        </mxCell>
        <mxCell id="7b05wyDqm9bEw5o-YQ6S-28" value="Update Note" style="rounded=0;whiteSpace=wrap;html=1;fontSize=18;fontStyle=1;fillColor=none;" parent="1" vertex="1">
          <mxGeometry x="1800" y="1440" width="200" height="40" as="geometry" />
        </mxCell>
        <mxCell id="7b05wyDqm9bEw5o-YQ6S-29" value="&lt;ul style=&quot;font-size: 14px;&quot;&gt;&lt;li style=&quot;font-size: 14px;&quot;&gt;id&lt;/li&gt;&lt;li style=&quot;font-size: 14px;&quot;&gt;creation date&lt;/li&gt;&lt;li style=&quot;font-size: 14px;&quot;&gt;note&lt;/li&gt;&lt;/ul&gt;" style="rounded=0;whiteSpace=wrap;html=1;align=left;fontSize=14;fillColor=none;verticalAlign=middle;" parent="1" vertex="1">
          <mxGeometry x="1800" y="1480" width="200" height="80" as="geometry" />
        </mxCell>
        <mxCell id="7b05wyDqm9bEw5o-YQ6S-32" value="Report" style="rounded=0;whiteSpace=wrap;html=1;fontSize=18;fontStyle=1;fillColor=none;" parent="1" vertex="1">
          <mxGeometry x="2520" y="1440" width="200" height="40" as="geometry" />
        </mxCell>
        <mxCell id="7b05wyDqm9bEw5o-YQ6S-33" value="&lt;ul style=&quot;font-size: 14px;&quot;&gt;&lt;li style=&quot;font-size: 14px;&quot;&gt;id&lt;/li&gt;&lt;li style=&quot;font-size: 14px;&quot;&gt;creation date&lt;/li&gt;&lt;li style=&quot;font-size: 14px;&quot;&gt;explanation&lt;/li&gt;&lt;/ul&gt;" style="rounded=0;whiteSpace=wrap;html=1;align=left;fontSize=14;fillColor=none;verticalAlign=middle;" parent="1" vertex="1">
          <mxGeometry x="2520" y="1480" width="200" height="80" as="geometry" />
        </mxCell>
        <mxCell id="7b05wyDqm9bEw5o-YQ6S-34" value="Report Type" style="rounded=0;whiteSpace=wrap;html=1;fontSize=18;fontStyle=1;fillColor=none;" parent="1" vertex="1">
          <mxGeometry x="2880" y="1440" width="200" height="40" as="geometry" />
        </mxCell>
        <mxCell id="7b05wyDqm9bEw5o-YQ6S-35" value="&lt;ul style=&quot;font-size: 14px;&quot;&gt;&lt;li style=&quot;font-size: 14px;&quot;&gt;id&lt;/li&gt;&lt;li style=&quot;font-size: 14px;&quot;&gt;creation date&lt;/li&gt;&lt;li style=&quot;font-size: 14px;&quot;&gt;last modified&lt;/li&gt;&lt;li&gt;name&lt;/li&gt;&lt;/ul&gt;" style="rounded=0;whiteSpace=wrap;html=1;align=left;fontSize=14;fillColor=none;verticalAlign=middle;" parent="1" vertex="1">
          <mxGeometry x="2880" y="1480" width="200" height="80" as="geometry" />
        </mxCell>
        <mxCell id="7b05wyDqm9bEw5o-YQ6S-36" style="edgeStyle=orthogonalEdgeStyle;rounded=0;orthogonalLoop=1;jettySize=auto;html=1;endArrow=ERzeroToMany;endFill=0;startArrow=ERmandOne;startFill=0;endSize=10;startSize=10;" parent="1" edge="1">
          <mxGeometry relative="1" as="geometry">
            <mxPoint x="1470" y="1200" as="sourcePoint" />
            <mxPoint x="1900" y="1430" as="targetPoint" />
            <Array as="points">
              <mxPoint x="1900" y="1200" />
            </Array>
          </mxGeometry>
        </mxCell>
        <mxCell id="7b05wyDqm9bEw5o-YQ6S-37" value="&amp;nbsp;is updated&amp;nbsp;" style="edgeLabel;html=1;align=center;verticalAlign=middle;resizable=0;points=[];" parent="7b05wyDqm9bEw5o-YQ6S-36" vertex="1" connectable="0">
          <mxGeometry x="-0.0044" relative="1" as="geometry">
            <mxPoint as="offset" />
          </mxGeometry>
        </mxCell>
        <mxCell id="7b05wyDqm9bEw5o-YQ6S-38" style="edgeStyle=orthogonalEdgeStyle;rounded=0;orthogonalLoop=1;jettySize=auto;html=1;endArrow=ERzeroToMany;endFill=0;startArrow=ERmandOne;startFill=0;endSize=10;startSize=10;" parent="1" edge="1">
          <mxGeometry relative="1" as="geometry">
            <mxPoint x="1470" y="1800" as="sourcePoint" />
            <mxPoint x="1900" y="1570" as="targetPoint" />
            <Array as="points">
              <mxPoint x="1900" y="1800" />
            </Array>
          </mxGeometry>
        </mxCell>
        <mxCell id="7b05wyDqm9bEw5o-YQ6S-39" value="&amp;nbsp;is updated&amp;nbsp;" style="edgeLabel;html=1;align=center;verticalAlign=middle;resizable=0;points=[];" parent="7b05wyDqm9bEw5o-YQ6S-38" vertex="1" connectable="0">
          <mxGeometry x="-0.0044" relative="1" as="geometry">
            <mxPoint as="offset" />
          </mxGeometry>
        </mxCell>
        <mxCell id="7b05wyDqm9bEw5o-YQ6S-40" style="edgeStyle=orthogonalEdgeStyle;rounded=0;orthogonalLoop=1;jettySize=auto;html=1;endArrow=ERmandOne;endFill=0;startArrow=ERzeroToMany;startFill=0;endSize=10;startSize=10;" parent="1" edge="1">
          <mxGeometry relative="1" as="geometry">
            <mxPoint x="2730" y="1500" as="sourcePoint" />
            <mxPoint x="2870" y="1500" as="targetPoint" />
          </mxGeometry>
        </mxCell>
        <mxCell id="7b05wyDqm9bEw5o-YQ6S-41" value="&amp;nbsp;is a&amp;nbsp;" style="edgeLabel;html=1;align=center;verticalAlign=middle;resizable=0;points=[];" parent="7b05wyDqm9bEw5o-YQ6S-40" vertex="1" connectable="0">
          <mxGeometry x="-0.0061" y="1" relative="1" as="geometry">
            <mxPoint as="offset" />
          </mxGeometry>
        </mxCell>
        <mxCell id="7b05wyDqm9bEw5o-YQ6S-42" value="User" style="rounded=0;whiteSpace=wrap;html=1;fontSize=18;fontStyle=1;fillColor=none;" parent="1" vertex="1">
          <mxGeometry x="2160" y="1380" width="200" height="40" as="geometry" />
        </mxCell>
        <mxCell id="7b05wyDqm9bEw5o-YQ6S-43" value="&lt;ul style=&quot;font-size: 14px;&quot;&gt;&lt;li style=&quot;font-size: 14px;&quot;&gt;id&lt;/li&gt;&lt;li&gt;flags&lt;/li&gt;&lt;li&gt;report count&lt;/li&gt;&lt;li&gt;login failure count&lt;/li&gt;&lt;li style=&quot;font-size: 14px;&quot;&gt;username&lt;/li&gt;&lt;li style=&quot;font-size: 14px;&quot;&gt;email&lt;/li&gt;&lt;li style=&quot;font-size: 14px;&quot;&gt;password hash&lt;/li&gt;&lt;li style=&quot;font-size: 14px;&quot;&gt;creation date&lt;/li&gt;&lt;li style=&quot;font-size: 14px;&quot;&gt;last modified&lt;/li&gt;&lt;li style=&quot;font-size: 14px;&quot;&gt;about&lt;/li&gt;&lt;/ul&gt;" style="rounded=0;whiteSpace=wrap;html=1;align=left;fontSize=14;fillColor=none;verticalAlign=middle;" parent="1" vertex="1">
          <mxGeometry x="2160" y="1420" width="200" height="200" as="geometry" />
        </mxCell>
        <mxCell id="7b05wyDqm9bEw5o-YQ6S-44" style="edgeStyle=orthogonalEdgeStyle;rounded=0;orthogonalLoop=1;jettySize=auto;html=1;endArrow=ERzeroToOne;endFill=0;startArrow=ERzeroToMany;startFill=0;endSize=10;startSize=10;" parent="1" edge="1">
          <mxGeometry relative="1" as="geometry">
            <mxPoint x="1470" y="1840" as="sourcePoint" />
            <mxPoint x="2150" y="1560" as="targetPoint" />
            <Array as="points">
              <mxPoint x="2080" y="1840" />
              <mxPoint x="2080" y="1560" />
            </Array>
          </mxGeometry>
        </mxCell>
        <mxCell id="7b05wyDqm9bEw5o-YQ6S-45" value="&amp;nbsp;owns&amp;nbsp;" style="edgeLabel;html=1;align=center;verticalAlign=middle;resizable=0;points=[];" parent="7b05wyDqm9bEw5o-YQ6S-44" vertex="1" connectable="0">
          <mxGeometry x="0.0002" relative="1" as="geometry">
            <mxPoint as="offset" />
          </mxGeometry>
        </mxCell>
        <mxCell id="7b05wyDqm9bEw5o-YQ6S-46" style="edgeStyle=orthogonalEdgeStyle;rounded=0;orthogonalLoop=1;jettySize=auto;html=1;endArrow=ERzeroToMany;endFill=0;startArrow=ERmandOne;startFill=0;endSize=10;startSize=10;" parent="1" edge="1">
          <mxGeometry relative="1" as="geometry">
            <mxPoint x="1470" y="1880" as="sourcePoint" />
            <mxPoint x="2620" y="1570" as="targetPoint" />
            <Array as="points">
              <mxPoint x="1540" y="1880" />
              <mxPoint x="1540" y="1960" />
              <mxPoint x="2620" y="1960" />
            </Array>
          </mxGeometry>
        </mxCell>
        <mxCell id="7b05wyDqm9bEw5o-YQ6S-47" value="&amp;nbsp;has&amp;nbsp;" style="edgeLabel;html=1;align=center;verticalAlign=middle;resizable=0;points=[];" parent="7b05wyDqm9bEw5o-YQ6S-46" vertex="1" connectable="0">
          <mxGeometry x="-0.0057" relative="1" as="geometry">
            <mxPoint as="offset" />
          </mxGeometry>
        </mxCell>
        <mxCell id="7b05wyDqm9bEw5o-YQ6S-48" style="edgeStyle=orthogonalEdgeStyle;rounded=0;orthogonalLoop=1;jettySize=auto;html=1;endArrow=ERzeroToMany;endFill=0;startArrow=ERmandOne;startFill=0;endSize=10;startSize=10;" parent="1" edge="1">
          <mxGeometry relative="1" as="geometry">
            <mxPoint x="1470" y="1120" as="sourcePoint" />
            <mxPoint x="2620" y="1430" as="targetPoint" />
            <Array as="points">
              <mxPoint x="1540" y="1120" />
              <mxPoint x="1540" y="1040" />
              <mxPoint x="2620" y="1040" />
            </Array>
          </mxGeometry>
        </mxCell>
        <mxCell id="7b05wyDqm9bEw5o-YQ6S-49" value="&amp;nbsp;has&amp;nbsp;" style="edgeLabel;html=1;align=center;verticalAlign=middle;resizable=0;points=[];" parent="7b05wyDqm9bEw5o-YQ6S-48" vertex="1" connectable="0">
          <mxGeometry x="-0.0057" relative="1" as="geometry">
            <mxPoint as="offset" />
          </mxGeometry>
        </mxCell>
        <mxCell id="7b05wyDqm9bEw5o-YQ6S-50" style="edgeStyle=orthogonalEdgeStyle;rounded=0;orthogonalLoop=1;jettySize=auto;html=1;endArrow=ERzeroToOne;endFill=0;startArrow=ERzeroToMany;startFill=0;endSize=10;startSize=10;" parent="1" edge="1">
          <mxGeometry relative="1" as="geometry">
            <mxPoint x="1470" y="1160" as="sourcePoint" />
            <mxPoint x="2150" y="1440" as="targetPoint" />
            <Array as="points">
              <mxPoint x="2080" y="1160" />
              <mxPoint x="2080" y="1440" />
            </Array>
          </mxGeometry>
        </mxCell>
        <mxCell id="7b05wyDqm9bEw5o-YQ6S-51" value="&amp;nbsp;owns&amp;nbsp;" style="edgeLabel;html=1;align=center;verticalAlign=middle;resizable=0;points=[];" parent="7b05wyDqm9bEw5o-YQ6S-50" vertex="1" connectable="0">
          <mxGeometry x="0.0002" relative="1" as="geometry">
            <mxPoint as="offset" />
          </mxGeometry>
        </mxCell>
        <mxCell id="7b05wyDqm9bEw5o-YQ6S-54" value="Avatar" style="rounded=0;whiteSpace=wrap;html=1;fontSize=18;fontStyle=1;fillColor=none;" parent="1" vertex="1">
          <mxGeometry x="2160" y="1100" width="200" height="40" as="geometry" />
        </mxCell>
        <mxCell id="7b05wyDqm9bEw5o-YQ6S-55" value="&lt;ul style=&quot;font-size: 14px;&quot;&gt;&lt;li style=&quot;font-size: 14px;&quot;&gt;id&lt;/li&gt;&lt;li style=&quot;font-size: 14px;&quot;&gt;creation date&lt;/li&gt;&lt;li style=&quot;font-size: 14px;&quot;&gt;last modified&lt;/li&gt;&lt;li style=&quot;font-size: 14px;&quot;&gt;data&lt;/li&gt;&lt;/ul&gt;" style="rounded=0;whiteSpace=wrap;html=1;align=left;fontSize=14;fillColor=none;verticalAlign=middle;" parent="1" vertex="1">
          <mxGeometry x="2160" y="1140" width="200" height="80" as="geometry" />
        </mxCell>
        <mxCell id="7b05wyDqm9bEw5o-YQ6S-56" style="edgeStyle=orthogonalEdgeStyle;rounded=0;orthogonalLoop=1;jettySize=auto;html=1;endArrow=ERmandOne;endFill=0;startArrow=ERzeroToMany;startFill=0;endSize=10;startSize=10;" parent="1" edge="1">
          <mxGeometry relative="1" as="geometry">
            <mxPoint x="2260" y="1370" as="sourcePoint" />
            <mxPoint x="2260" y="1230" as="targetPoint" />
          </mxGeometry>
        </mxCell>
        <mxCell id="7b05wyDqm9bEw5o-YQ6S-57" value="has" style="edgeLabel;html=1;align=center;verticalAlign=middle;resizable=0;points=[];" parent="7b05wyDqm9bEw5o-YQ6S-56" vertex="1" connectable="0">
          <mxGeometry x="0.0184" relative="1" as="geometry">
            <mxPoint as="offset" />
          </mxGeometry>
        </mxCell>
        <mxCell id="7b05wyDqm9bEw5o-YQ6S-58" value="Role" style="rounded=0;whiteSpace=wrap;html=1;fontSize=18;fontStyle=1;fillColor=none;" parent="1" vertex="1">
          <mxGeometry x="2160" y="1780" width="200" height="40" as="geometry" />
        </mxCell>
        <mxCell id="7b05wyDqm9bEw5o-YQ6S-59" value="&lt;ul style=&quot;font-size: 14px;&quot;&gt;&lt;li style=&quot;font-size: 14px;&quot;&gt;id&lt;/li&gt;&lt;li style=&quot;font-size: 14px;&quot;&gt;creation date&lt;/li&gt;&lt;li style=&quot;font-size: 14px;&quot;&gt;last modified&lt;/li&gt;&lt;li&gt;name&lt;/li&gt;&lt;li style=&quot;font-size: 14px;&quot;&gt;flags&lt;/li&gt;&lt;/ul&gt;" style="rounded=0;whiteSpace=wrap;html=1;align=left;fontSize=14;fillColor=none;verticalAlign=middle;" parent="1" vertex="1">
          <mxGeometry x="2160" y="1820" width="200" height="100" as="geometry" />
        </mxCell>
        <mxCell id="7b05wyDqm9bEw5o-YQ6S-60" style="edgeStyle=orthogonalEdgeStyle;rounded=0;orthogonalLoop=1;jettySize=auto;html=1;endArrow=ERzeroToMany;endFill=0;startArrow=ERmandOne;startFill=0;endSize=10;startSize=10;" parent="1" edge="1">
          <mxGeometry relative="1" as="geometry">
            <mxPoint x="2260" y="1770" as="sourcePoint" />
            <mxPoint x="2260" y="1630" as="targetPoint" />
          </mxGeometry>
        </mxCell>
        <mxCell id="7b05wyDqm9bEw5o-YQ6S-61" value="has" style="edgeLabel;html=1;align=center;verticalAlign=middle;resizable=0;points=[];" parent="7b05wyDqm9bEw5o-YQ6S-60" vertex="1" connectable="0">
          <mxGeometry x="0.0184" relative="1" as="geometry">
            <mxPoint as="offset" />
          </mxGeometry>
        </mxCell>
        <mxCell id="7b05wyDqm9bEw5o-YQ6S-64" style="edgeStyle=orthogonalEdgeStyle;rounded=0;orthogonalLoop=1;jettySize=auto;html=1;endArrow=ERzeroToMany;endFill=0;startArrow=ERmandOne;startFill=0;endSize=10;startSize=10;" parent="1" edge="1">
          <mxGeometry relative="1" as="geometry">
            <mxPoint x="2370" y="1460" as="sourcePoint" />
            <mxPoint x="2510" y="1460" as="targetPoint" />
            <Array as="points">
              <mxPoint x="2440" y="1460" />
              <mxPoint x="2440" y="1460" />
            </Array>
          </mxGeometry>
        </mxCell>
        <mxCell id="7b05wyDqm9bEw5o-YQ6S-65" value="&amp;nbsp;has&amp;nbsp;" style="edgeLabel;html=1;align=center;verticalAlign=middle;resizable=0;points=[];" parent="7b05wyDqm9bEw5o-YQ6S-64" vertex="1" connectable="0">
          <mxGeometry x="-0.0057" relative="1" as="geometry">
            <mxPoint as="offset" />
          </mxGeometry>
        </mxCell>
        <mxCell id="7b05wyDqm9bEw5o-YQ6S-66" style="edgeStyle=orthogonalEdgeStyle;rounded=0;orthogonalLoop=1;jettySize=auto;html=1;endArrow=ERzeroToMany;endFill=0;startArrow=ERmandOne;startFill=0;endSize=10;startSize=10;" parent="1" edge="1">
          <mxGeometry relative="1" as="geometry">
            <mxPoint x="2370" y="1540" as="sourcePoint" />
            <mxPoint x="2510" y="1540" as="targetPoint" />
            <Array as="points">
              <mxPoint x="2440" y="1540" />
              <mxPoint x="2440" y="1540" />
            </Array>
          </mxGeometry>
        </mxCell>
        <mxCell id="7b05wyDqm9bEw5o-YQ6S-67" value="&amp;nbsp;issues&amp;nbsp;" style="edgeLabel;html=1;align=center;verticalAlign=middle;resizable=0;points=[];" parent="7b05wyDqm9bEw5o-YQ6S-66" vertex="1" connectable="0">
          <mxGeometry x="-0.0057" relative="1" as="geometry">
            <mxPoint as="offset" />
          </mxGeometry>
        </mxCell>
        <mxCell id="4DxbdbWb2lk3k9siDuRa-1" value="&lt;div style=&quot;font-size: 10px;&quot;&gt;&lt;span style=&quot;background-color: initial; font-size: 10px;&quot;&gt;&lt;font style=&quot;font-size: 10px;&quot;&gt;Resources can reference each other to form a graph-like structure. The &quot;direction&quot; attribute specifies in which direction the Link goes. It is also possible to have a link that goes in both directions, thus avoiding the need of two instances to represent such case.&lt;/font&gt;&lt;/span&gt;&lt;/div&gt;" style="text;html=1;strokeColor=#B3B3B3;fillColor=none;align=left;verticalAlign=middle;whiteSpace=wrap;rounded=0;perimeterSpacing=0;dashed=1;spacing=10;fontColor=#B3B3B3;fontSize=10;" parent="1" vertex="1">
          <mxGeometry x="1540" y="800" width="160" height="130" as="geometry" />
        </mxCell>
        <mxCell id="4DxbdbWb2lk3k9siDuRa-3" value="&lt;font style=&quot;font-size: 10px;&quot;&gt;Resources are structural entities, that is, they are essentially a collection of Media entities &quot;glued&quot; together with markup (HTML) along with extra metadata.&lt;/font&gt;" style="text;html=1;strokeColor=#B3B3B3;fillColor=none;align=left;verticalAlign=middle;whiteSpace=wrap;rounded=0;perimeterSpacing=0;dashed=1;spacing=10;fontColor=#B3B3B3;fontSize=10;" parent="1" vertex="1">
          <mxGeometry x="980" y="1050" width="200" height="60" as="geometry" />
        </mxCell>
        <mxCell id="4DxbdbWb2lk3k9siDuRa-4" value="&lt;font color=&quot;#b3b3b3&quot; style=&quot;font-size: 10px;&quot;&gt;Media entities are the core entities of the data model. They are composed of metadata and the raw data itself. The data can be any commonly known media format, such as JPG, PNG, MP3, MP4, PDF, etc...&lt;/font&gt;" style="text;html=1;strokeColor=#B3B3B3;fillColor=none;align=left;verticalAlign=middle;whiteSpace=wrap;rounded=0;perimeterSpacing=0;dashed=1;spacing=10;fontSize=10;" parent="1" vertex="1">
          <mxGeometry x="980" y="1740" width="200" height="80" as="geometry" />
        </mxCell>
        <mxCell id="4DxbdbWb2lk3k9siDuRa-5" value="&lt;font color=&quot;#b3b3b3&quot; style=&quot;font-size: 10px;&quot;&gt;Resources and Media entities can be categorized via Tags, which allows for easier searching. The &quot;domain&quot; attribute is a 2-bit a flag that allows Resources and / or Media to be &quot;categorized&quot; by a specific Tag instance.&lt;/font&gt;" style="text;html=1;strokeColor=#B3B3B3;fillColor=none;align=left;verticalAlign=middle;whiteSpace=wrap;rounded=0;perimeterSpacing=0;dashed=1;spacing=10;fontSize=10;" parent="1" vertex="1">
          <mxGeometry x="800" y="1460" width="200" height="80" as="geometry" />
        </mxCell>
        <mxCell id="4DxbdbWb2lk3k9siDuRa-6" value="&lt;font color=&quot;#b3b3b3&quot; style=&quot;font-size: 10px;&quot;&gt;Types specify which &quot;type&quot; a Resource or Media entity can be. These entities are going to be mostly fixed &quot;enumeration&quot; style records. The attribute &quot;domain&quot; specifies if a particular type can be used by Resource or Media entities exclusively. This means that the &quot;is a&quot; relation will always be mutually exclusive. Examples of types for Media entities:&amp;nbsp;JPG, PNG, MP3, MP4, PDF, etc... Examples of types for Resource entities: &quot;Post&quot;, &quot;Video&quot;, &quot;Comment&quot;, etc...&lt;br&gt;&lt;/font&gt;" style="text;html=1;strokeColor=#B3B3B3;fillColor=none;align=left;verticalAlign=middle;whiteSpace=wrap;rounded=0;perimeterSpacing=0;dashed=1;spacing=10;fontSize=10;" parent="1" vertex="1">
          <mxGeometry x="1600" y="1250" width="240" height="140" as="geometry" />
        </mxCell>
        <mxCell id="4DxbdbWb2lk3k9siDuRa-7" value="&lt;font color=&quot;#b3b3b3&quot; style=&quot;font-size: 10px;&quot;&gt;Update Notes record the precise time in which a specific Resource or Media instance was updated. Users can also specify a textual comment. Only one of the two &quot;is updated&quot; relations can be valid per instance of this entity.&lt;/font&gt;" style="text;html=1;strokeColor=#B3B3B3;fillColor=none;align=left;verticalAlign=middle;whiteSpace=wrap;rounded=0;perimeterSpacing=0;dashed=1;spacing=10;fontSize=10;" parent="1" vertex="1">
          <mxGeometry x="1620" y="1640" width="200" height="80" as="geometry" />
        </mxCell>
        <mxCell id="4DxbdbWb2lk3k9siDuRa-8" value="&lt;font color=&quot;#b3b3b3&quot; style=&quot;font-size: 10px;&quot;&gt;Roles dictate the permissions of the associated User. The permissions are expressed via a set of boolean flags in the &quot;flags&quot; attribute.&lt;/font&gt;" style="text;html=1;strokeColor=#B3B3B3;fillColor=none;align=left;verticalAlign=middle;whiteSpace=wrap;rounded=0;perimeterSpacing=0;dashed=1;spacing=10;fontSize=10;" parent="1" vertex="1">
          <mxGeometry x="2400" y="1780" width="160" height="80" as="geometry" />
        </mxCell>
        <mxCell id="4DxbdbWb2lk3k9siDuRa-9" value="&lt;font style=&quot;font-size: 10px;&quot; color=&quot;#b3b3b3&quot;&gt;Avatars provide the Users with a profile picture. The Avatar entities are fixed &quot;enumeration&quot; style records.&lt;/font&gt;" style="text;html=1;strokeColor=#B3B3B3;fillColor=none;align=left;verticalAlign=middle;whiteSpace=wrap;rounded=0;perimeterSpacing=0;dashed=1;spacing=10;" parent="1" vertex="1">
          <mxGeometry x="2400" y="1140" width="160" height="80" as="geometry" />
        </mxCell>
        <mxCell id="4DxbdbWb2lk3k9siDuRa-10" value="&lt;font color=&quot;#b3b3b3&quot;&gt;Report entities must always specify one of the existing Report Type (&quot;enumeration&quot; style entity).&lt;/font&gt;" style="text;html=1;strokeColor=#B3B3B3;fillColor=none;align=left;verticalAlign=middle;whiteSpace=wrap;rounded=0;perimeterSpacing=0;dashed=1;spacing=10;" parent="1" vertex="1">
          <mxGeometry x="2880" y="1640" width="200" height="60" as="geometry" />
        </mxCell>
        <mxCell id="4DxbdbWb2lk3k9siDuRa-11" value="&lt;font color=&quot;#b3b3b3&quot;&gt;Users (if allowed by their role) can report other user&#39;s resources, media or other users too. Each instance of Report will only have one &quot;has&quot; relation valid. Users must specify an explanation via the &quot;explanation&quot; attribute.&lt;/font&gt;" style="text;html=1;strokeColor=#B3B3B3;fillColor=none;align=left;verticalAlign=middle;whiteSpace=wrap;rounded=0;perimeterSpacing=0;dashed=1;spacing=10;" parent="1" vertex="1">
          <mxGeometry x="2720" y="1240" width="200" height="120" as="geometry" />
        </mxCell>
        <mxCell id="4DxbdbWb2lk3k9siDuRa-12" value="" style="endArrow=blockThin;html=1;rounded=0;dashed=1;endFill=0;strokeColor=#B3B3B3;" parent="1" edge="1">
          <mxGeometry width="50" height="50" relative="1" as="geometry">
            <mxPoint x="1470" y="840" as="sourcePoint" />
            <mxPoint x="1530" y="840" as="targetPoint" />
          </mxGeometry>
        </mxCell>
        <mxCell id="4DxbdbWb2lk3k9siDuRa-13" value="" style="endArrow=blockThin;html=1;rounded=0;dashed=1;endFill=0;strokeColor=#B3B3B3;" parent="1" edge="1">
          <mxGeometry width="50" height="50" relative="1" as="geometry">
            <mxPoint x="1250" y="1080" as="sourcePoint" />
            <mxPoint x="1190" y="1080" as="targetPoint" />
          </mxGeometry>
        </mxCell>
        <mxCell id="4DxbdbWb2lk3k9siDuRa-14" value="" style="endArrow=blockThin;html=1;rounded=0;dashed=1;endFill=0;strokeColor=#B3B3B3;" parent="1" edge="1">
          <mxGeometry width="50" height="50" relative="1" as="geometry">
            <mxPoint x="1070" y="1500" as="sourcePoint" />
            <mxPoint x="1010" y="1500" as="targetPoint" />
          </mxGeometry>
        </mxCell>
        <mxCell id="4DxbdbWb2lk3k9siDuRa-15" value="" style="endArrow=blockThin;html=1;rounded=0;dashed=1;endFill=0;strokeColor=#B3B3B3;" parent="1" edge="1">
          <mxGeometry width="50" height="50" relative="1" as="geometry">
            <mxPoint x="1250" y="1780" as="sourcePoint" />
            <mxPoint x="1190" y="1780" as="targetPoint" />
          </mxGeometry>
        </mxCell>
        <mxCell id="4DxbdbWb2lk3k9siDuRa-16" value="" style="endArrow=blockThin;html=1;rounded=0;dashed=1;endFill=0;strokeColor=#B3B3B3;" parent="1" edge="1">
          <mxGeometry width="50" height="50" relative="1" as="geometry">
            <mxPoint x="1790" y="1500" as="sourcePoint" />
            <mxPoint x="1740" y="1630" as="targetPoint" />
            <Array as="points">
              <mxPoint x="1740" y="1500" />
            </Array>
          </mxGeometry>
        </mxCell>
        <mxCell id="4DxbdbWb2lk3k9siDuRa-18" value="" style="endArrow=blockThin;html=1;rounded=0;dashed=1;endFill=0;strokeColor=#B3B3B3;" parent="1" edge="1">
          <mxGeometry width="50" height="50" relative="1" as="geometry">
            <mxPoint x="1650" y="1500" as="sourcePoint" />
            <mxPoint x="1700" y="1400" as="targetPoint" />
            <Array as="points">
              <mxPoint x="1700" y="1500" />
            </Array>
          </mxGeometry>
        </mxCell>
        <mxCell id="4DxbdbWb2lk3k9siDuRa-19" value="" style="endArrow=blockThin;html=1;rounded=0;dashed=1;endFill=0;strokeColor=#B3B3B3;" parent="1" edge="1">
          <mxGeometry width="50" height="50" relative="1" as="geometry">
            <mxPoint x="2320" y="1770" as="sourcePoint" />
            <mxPoint x="2480" y="1770" as="targetPoint" />
            <Array as="points">
              <mxPoint x="2320" y="1700" />
              <mxPoint x="2480" y="1700" />
            </Array>
          </mxGeometry>
        </mxCell>
        <mxCell id="4DxbdbWb2lk3k9siDuRa-21" value="" style="endArrow=blockThin;html=1;rounded=0;dashed=1;endFill=0;strokeColor=#B3B3B3;" parent="1" edge="1">
          <mxGeometry width="50" height="50" relative="1" as="geometry">
            <mxPoint x="2320" y="1230" as="sourcePoint" />
            <mxPoint x="2480" y="1230" as="targetPoint" />
            <Array as="points">
              <mxPoint x="2320" y="1300" />
              <mxPoint x="2480" y="1300" />
            </Array>
          </mxGeometry>
        </mxCell>
        <mxCell id="4DxbdbWb2lk3k9siDuRa-22" value="" style="endArrow=blockThin;html=1;rounded=0;dashed=1;endFill=0;strokeColor=#B3B3B3;" parent="1" edge="1">
          <mxGeometry width="50" height="50" relative="1" as="geometry">
            <mxPoint x="2660" y="1430" as="sourcePoint" />
            <mxPoint x="2710" y="1300" as="targetPoint" />
            <Array as="points">
              <mxPoint x="2660" y="1300" />
            </Array>
          </mxGeometry>
        </mxCell>
        <mxCell id="4DxbdbWb2lk3k9siDuRa-23" value="" style="endArrow=blockThin;html=1;rounded=0;dashed=1;endFill=0;strokeColor=#B3B3B3;" parent="1" edge="1">
          <mxGeometry width="50" height="50" relative="1" as="geometry">
            <mxPoint x="2980" y="1570" as="sourcePoint" />
            <mxPoint x="2980" y="1630" as="targetPoint" />
            <Array as="points">
              <mxPoint x="2980" y="1600" />
            </Array>
          </mxGeometry>
        </mxCell>
        <mxCell id="4DxbdbWb2lk3k9siDuRa-25" value="Users are the main actors within the data model and, depending on their Role, they can access various things. If a user can create a Resource and / or a Media entity, then that entity will be &quot;owned&quot; by the creating user." style="text;html=1;strokeColor=#B3B3B3;fillColor=none;align=left;verticalAlign=middle;whiteSpace=wrap;rounded=0;perimeterSpacing=0;dashed=1;spacing=10;fontSize=10;fontColor=#B3B3B3;" parent="1" vertex="1">
          <mxGeometry x="2680" y="1760" width="240" height="80" as="geometry" />
        </mxCell>
        <mxCell id="4DxbdbWb2lk3k9siDuRa-26" value="" style="endArrow=blockThin;html=1;rounded=0;dashed=1;endFill=0;strokeColor=#B3B3B3;jumpStyle=gap;jumpSize=20;" parent="1" edge="1">
          <mxGeometry width="50" height="50" relative="1" as="geometry">
            <mxPoint x="2320" y="1630" as="sourcePoint" />
            <mxPoint x="2800" y="1750" as="targetPoint" />
            <Array as="points">
              <mxPoint x="2320" y="1660" />
              <mxPoint x="2800" y="1660" />
            </Array>
          </mxGeometry>
        </mxCell>
        <mxCell id="fmmEpZtJAJZfhJGe7ApT-1" value="System Diagnostic" style="rounded=0;whiteSpace=wrap;html=1;fontSize=18;fontStyle=1;fillColor=none;" parent="1" vertex="1">
          <mxGeometry x="2880" y="800" width="200" height="40" as="geometry" />
        </mxCell>
        <mxCell id="fmmEpZtJAJZfhJGe7ApT-2" value="&lt;ul style=&quot;font-size: 14px;&quot;&gt;&lt;li style=&quot;font-size: 14px;&quot;&gt;creation date&lt;/li&gt;&lt;li style=&quot;font-size: 14px;&quot;&gt;uptime&lt;/li&gt;&lt;li style=&quot;font-size: 14px;&quot;&gt;virtual threads&lt;/li&gt;&lt;li style=&quot;font-size: 14px;&quot;&gt;carrier threads&lt;/li&gt;&lt;li style=&quot;font-size: 14px;&quot;&gt;memory used&lt;/li&gt;&lt;li style=&quot;font-size: 14px;&quot;&gt;memory free&lt;/li&gt;&lt;li style=&quot;font-size: 14px;&quot;&gt;cache misses&lt;/li&gt;&lt;li style=&quot;font-size: 14px;&quot;&gt;database queries&lt;/li&gt;&lt;li style=&quot;font-size: 14px;&quot;&gt;sessions created&lt;/li&gt;&lt;li style=&quot;font-size: 14px;&quot;&gt;sessions destroyed&lt;/li&gt;&lt;li style=&quot;font-size: 14px;&quot;&gt;logged users&lt;/li&gt;&lt;li style=&quot;font-size: 14px;&quot;&gt;create requests&lt;/li&gt;&lt;li style=&quot;font-size: 14px;&quot;&gt;read requests&lt;/li&gt;&lt;li style=&quot;font-size: 14px;&quot;&gt;update requests&lt;/li&gt;&lt;li style=&quot;font-size: 14px;&quot;&gt;delete requests&lt;/li&gt;&lt;li style=&quot;font-size: 14px;&quot;&gt;responses sent&lt;/li&gt;&lt;li style=&quot;font-size: 14px;&quot;&gt;sockets accepted&lt;/li&gt;&lt;li style=&quot;font-size: 14px;&quot;&gt;sockets closed&lt;/li&gt;&lt;/ul&gt;" style="rounded=0;whiteSpace=wrap;html=1;align=left;fontSize=14;fillColor=none;verticalAlign=middle;" parent="1" vertex="1">
          <mxGeometry x="2880" y="840" width="200" height="320" as="geometry" />
        </mxCell>
        <mxCell id="9JjYuR4UTPl9N2FX4pHk-1" value="&lt;font color=&quot;#b3b3b3&quot;&gt;System Diagnostics will record various useful metrics of the running application. This can be used to monitor the system health and address issues.&lt;/font&gt;" style="text;html=1;strokeColor=#B3B3B3;fillColor=none;align=left;verticalAlign=middle;whiteSpace=wrap;rounded=0;perimeterSpacing=0;dashed=1;spacing=10;" parent="1" vertex="1">
          <mxGeometry x="2600" y="800" width="200" height="80" as="geometry" />
        </mxCell>
        <mxCell id="9JjYuR4UTPl9N2FX4pHk-2" value="" style="endArrow=blockThin;html=1;rounded=0;dashed=1;endFill=0;strokeColor=#B3B3B3;" parent="1" edge="1">
          <mxGeometry width="50" height="50" relative="1" as="geometry">
            <mxPoint x="2870" y="840" as="sourcePoint" />
            <mxPoint x="2810" y="840" as="targetPoint" />
          </mxGeometry>
        </mxCell>
        <mxCell id="s_fJ5wskB-hJh5at7gJH-1" value="Log" style="rounded=0;whiteSpace=wrap;html=1;fontSize=18;fontStyle=1;fillColor=none;" parent="1" vertex="1">
          <mxGeometry x="2240" y="800" width="200" height="40" as="geometry" />
        </mxCell>
        <mxCell id="s_fJ5wskB-hJh5at7gJH-2" value="&lt;ul style=&quot;font-size: 14px;&quot;&gt;&lt;li style=&quot;font-size: 14px;&quot;&gt;id&lt;/li&gt;&lt;li style=&quot;font-size: 14px;&quot;&gt;log id&lt;/li&gt;&lt;li style=&quot;font-size: 14px;&quot;&gt;creation date&lt;/li&gt;&lt;li style=&quot;font-size: 14px;&quot;&gt;log level&lt;/li&gt;&lt;li style=&quot;font-size: 14px;&quot;&gt;message&lt;/li&gt;&lt;/ul&gt;" style="rounded=0;whiteSpace=wrap;html=1;align=left;fontSize=14;fillColor=none;verticalAlign=middle;" parent="1" vertex="1">
          <mxGeometry x="2240" y="840" width="200" height="100" as="geometry" />
        </mxCell>
        <mxCell id="s_fJ5wskB-hJh5at7gJH-3" style="edgeStyle=orthogonalEdgeStyle;rounded=0;orthogonalLoop=1;jettySize=auto;html=1;endArrow=ERzeroToMany;endFill=0;startArrow=ERmandOne;startFill=0;endSize=10;startSize=10;" parent="1" edge="1">
          <mxGeometry relative="1" as="geometry">
            <mxPoint x="2870" y="960" as="sourcePoint" />
            <mxPoint x="2450" y="820" as="targetPoint" />
            <Array as="points">
              <mxPoint x="2670" y="960" />
              <mxPoint x="2520" y="960" />
              <mxPoint x="2520" y="820" />
            </Array>
          </mxGeometry>
        </mxCell>
        <mxCell id="s_fJ5wskB-hJh5at7gJH-4" value="&amp;nbsp;has&amp;nbsp;" style="edgeLabel;html=1;align=center;verticalAlign=middle;resizable=0;points=[];" parent="s_fJ5wskB-hJh5at7gJH-3" vertex="1" connectable="0">
          <mxGeometry x="-0.0057" relative="1" as="geometry">
            <mxPoint as="offset" />
          </mxGeometry>
        </mxCell>
        <mxCell id="s_fJ5wskB-hJh5at7gJH-5" value="&lt;font color=&quot;#b3b3b3&quot;&gt;Logs are red from the application log file(s) and periodically written here aswell.&lt;/font&gt;" style="text;html=1;strokeColor=#B3B3B3;fillColor=none;align=left;verticalAlign=middle;whiteSpace=wrap;rounded=0;perimeterSpacing=0;dashed=1;spacing=10;" parent="1" vertex="1">
          <mxGeometry x="1960" y="800" width="200" height="60" as="geometry" />
        </mxCell>
        <mxCell id="s_fJ5wskB-hJh5at7gJH-6" value="" style="endArrow=blockThin;html=1;rounded=0;dashed=1;endFill=0;strokeColor=#B3B3B3;" parent="1" edge="1">
          <mxGeometry width="50" height="50" relative="1" as="geometry">
            <mxPoint x="2230" y="830" as="sourcePoint" />
            <mxPoint x="2170" y="830" as="targetPoint" />
          </mxGeometry>
        </mxCell>
      </root>
    </mxGraphModel>
  </diagram>
  <diagram id="sbObvusgtRi-5TGIyPSc" name="Backend">
    <mxGraphModel dx="2314" dy="1192" grid="1" gridSize="10" guides="0" tooltips="1" connect="1" arrows="1" fold="1" page="1" pageScale="1" pageWidth="4681" pageHeight="3300" math="0" shadow="0">
      <root>
        <mxCell id="0" />
        <mxCell id="1" parent="0" />
        <mxCell id="dnYBnsJlJMFcw7EFnt2x-16" value="" style="rounded=0;whiteSpace=wrap;html=1;" parent="1" vertex="1">
          <mxGeometry x="1340" y="1360" width="1160" height="350" as="geometry" />
        </mxCell>
        <mxCell id="dnYBnsJlJMFcw7EFnt2x-3" value="" style="rounded=0;whiteSpace=wrap;html=1;fontSize=16;fillColor=none;" parent="1" vertex="1">
          <mxGeometry x="1680" y="1450" width="780" height="220" as="geometry" />
        </mxCell>
        <mxCell id="vm0kRCEVvRRhXZzdVqyy-1" value="" style="rounded=0;whiteSpace=wrap;html=1;" parent="1" vertex="1">
          <mxGeometry x="1340" y="700" width="1590" height="580" as="geometry" />
        </mxCell>
        <mxCell id="4jTjWkwYUUFSaiAf3Rvd-3" value="" style="rounded=0;whiteSpace=wrap;html=1;fontSize=16;dashed=1;fillColor=none;" parent="1" vertex="1">
          <mxGeometry x="2100" y="800" width="470" height="380" as="geometry" />
        </mxCell>
        <mxCell id="4jTjWkwYUUFSaiAf3Rvd-6" style="edgeStyle=orthogonalEdgeStyle;rounded=0;orthogonalLoop=1;jettySize=auto;html=1;fillColor=none;" parent="1" edge="1">
          <mxGeometry relative="1" as="geometry">
            <mxPoint x="1380" y="740" as="targetPoint" />
            <mxPoint x="1850" y="790" as="sourcePoint" />
            <Array as="points">
              <mxPoint x="1850" y="740" />
            </Array>
          </mxGeometry>
        </mxCell>
        <mxCell id="4jTjWkwYUUFSaiAf3Rvd-1" value="" style="rounded=0;whiteSpace=wrap;html=1;fontSize=16;dashed=1;fillColor=none;" parent="1" vertex="1">
          <mxGeometry x="1460" y="800" width="480" height="380" as="geometry" />
        </mxCell>
        <mxCell id="-SBEFByG9hUMhP9GLKhF-5" style="edgeStyle=orthogonalEdgeStyle;rounded=0;orthogonalLoop=1;jettySize=auto;html=1;fillColor=none;" parent="1" edge="1">
          <mxGeometry relative="1" as="geometry">
            <mxPoint x="1610" y="990" as="sourcePoint" />
            <mxPoint x="1750" y="890" as="targetPoint" />
            <Array as="points">
              <mxPoint x="1680" y="991" />
              <mxPoint x="1680" y="890" />
            </Array>
          </mxGeometry>
        </mxCell>
        <mxCell id="-SBEFByG9hUMhP9GLKhF-6" style="edgeStyle=orthogonalEdgeStyle;rounded=0;orthogonalLoop=1;jettySize=auto;html=1;fillColor=none;" parent="1" edge="1">
          <mxGeometry relative="1" as="geometry">
            <mxPoint x="1680" y="991" as="sourcePoint" />
            <mxPoint x="1750" y="1090" as="targetPoint" />
            <Array as="points">
              <mxPoint x="1680" y="991" />
              <mxPoint x="1680" y="1090" />
            </Array>
          </mxGeometry>
        </mxCell>
        <mxCell id="-SBEFByG9hUMhP9GLKhF-7" style="edgeStyle=orthogonalEdgeStyle;rounded=0;orthogonalLoop=1;jettySize=auto;html=1;endArrow=none;endFill=0;startArrow=classic;startFill=1;fillColor=none;" parent="1" edge="1">
          <mxGeometry relative="1" as="geometry">
            <mxPoint x="1380" y="990" as="targetPoint" />
            <mxPoint x="1450" y="990" as="sourcePoint" />
          </mxGeometry>
        </mxCell>
        <mxCell id="-SBEFByG9hUMhP9GLKhF-1" value="ServerTask&lt;br&gt;(v-thread)" style="rounded=0;whiteSpace=wrap;html=1;fontSize=16;fillColor=none;" parent="1" vertex="1">
          <mxGeometry x="1470" y="960" width="120" height="60" as="geometry" />
        </mxCell>
        <mxCell id="-SBEFByG9hUMhP9GLKhF-12" style="edgeStyle=orthogonalEdgeStyle;rounded=0;orthogonalLoop=1;jettySize=auto;html=1;fillColor=none;" parent="1" edge="1">
          <mxGeometry relative="1" as="geometry">
            <mxPoint x="1950" y="890" as="sourcePoint" />
            <mxPoint x="2090" y="840" as="targetPoint" />
            <Array as="points">
              <mxPoint x="2020" y="891" />
              <mxPoint x="2020" y="840" />
            </Array>
          </mxGeometry>
        </mxCell>
        <mxCell id="-SBEFByG9hUMhP9GLKhF-13" style="edgeStyle=orthogonalEdgeStyle;rounded=0;orthogonalLoop=1;jettySize=auto;html=1;fillColor=none;" parent="1" edge="1">
          <mxGeometry relative="1" as="geometry">
            <mxPoint x="2020" y="891" as="sourcePoint" />
            <mxPoint x="2090" y="940" as="targetPoint" />
            <Array as="points">
              <mxPoint x="2020" y="891" />
              <mxPoint x="2020" y="940" />
            </Array>
          </mxGeometry>
        </mxCell>
        <mxCell id="-SBEFByG9hUMhP9GLKhF-2" value="ConnectionTask&lt;br&gt;(v-thread)" style="rounded=0;whiteSpace=wrap;html=1;fontSize=16;fillColor=none;" parent="1" vertex="1">
          <mxGeometry x="1770" y="860" width="160" height="60" as="geometry" />
        </mxCell>
        <mxCell id="-SBEFByG9hUMhP9GLKhF-3" value="ConnectionTask&lt;br&gt;(v-thread)" style="rounded=0;whiteSpace=wrap;html=1;fontSize=16;fillColor=none;" parent="1" vertex="1">
          <mxGeometry x="1770" y="1060" width="160" height="60" as="geometry" />
        </mxCell>
        <mxCell id="-SBEFByG9hUMhP9GLKhF-4" value="&lt;span style=&quot;font-size: 24px;&quot;&gt;...&lt;/span&gt;" style="text;html=1;strokeColor=none;fillColor=none;align=center;verticalAlign=middle;whiteSpace=wrap;rounded=0;fontSize=24;" parent="1" vertex="1">
          <mxGeometry x="1820" y="960" width="60" height="60" as="geometry" />
        </mxCell>
        <mxCell id="-SBEFByG9hUMhP9GLKhF-27" style="edgeStyle=orthogonalEdgeStyle;rounded=0;orthogonalLoop=1;jettySize=auto;html=1;startArrow=classic;startFill=1;fillColor=none;" parent="1" edge="1">
          <mxGeometry relative="1" as="geometry">
            <mxPoint x="2390" y="840" as="targetPoint" />
            <mxPoint x="2250" y="840" as="sourcePoint" />
          </mxGeometry>
        </mxCell>
        <mxCell id="4jTjWkwYUUFSaiAf3Rvd-7" style="edgeStyle=orthogonalEdgeStyle;rounded=0;orthogonalLoop=1;jettySize=auto;html=1;endArrow=oval;endFill=1;fillColor=none;" parent="1" edge="1">
          <mxGeometry relative="1" as="geometry">
            <mxPoint x="1850" y="740" as="targetPoint" />
            <mxPoint x="2170" y="790" as="sourcePoint" />
            <Array as="points">
              <mxPoint x="2170" y="740" />
            </Array>
          </mxGeometry>
        </mxCell>
        <mxCell id="-SBEFByG9hUMhP9GLKhF-8" value="RequestTask&lt;br&gt;(v-thread)" style="rounded=0;whiteSpace=wrap;html=1;fontSize=16;fillColor=none;" parent="1" vertex="1">
          <mxGeometry x="2110" y="810" width="120" height="60" as="geometry" />
        </mxCell>
        <mxCell id="-SBEFByG9hUMhP9GLKhF-28" style="edgeStyle=orthogonalEdgeStyle;rounded=0;orthogonalLoop=1;jettySize=auto;html=1;startArrow=classic;startFill=1;fillColor=none;" parent="1" edge="1">
          <mxGeometry relative="1" as="geometry">
            <mxPoint x="2390" y="940" as="targetPoint" />
            <mxPoint x="2250" y="940" as="sourcePoint" />
          </mxGeometry>
        </mxCell>
        <mxCell id="-SBEFByG9hUMhP9GLKhF-9" value="RequestTask&lt;br&gt;(v-thread)" style="rounded=0;whiteSpace=wrap;html=1;fontSize=16;fillColor=none;" parent="1" vertex="1">
          <mxGeometry x="2110" y="910" width="120" height="60" as="geometry" />
        </mxCell>
        <mxCell id="-SBEFByG9hUMhP9GLKhF-22" style="edgeStyle=orthogonalEdgeStyle;rounded=0;orthogonalLoop=1;jettySize=auto;html=1;fillColor=none;" parent="1" edge="1">
          <mxGeometry relative="1" as="geometry">
            <mxPoint x="1950" y="1091" as="sourcePoint" />
            <mxPoint x="2090" y="1040" as="targetPoint" />
            <Array as="points">
              <mxPoint x="2020" y="1092" />
              <mxPoint x="2020" y="1040" />
            </Array>
          </mxGeometry>
        </mxCell>
        <mxCell id="-SBEFByG9hUMhP9GLKhF-23" style="edgeStyle=orthogonalEdgeStyle;rounded=0;orthogonalLoop=1;jettySize=auto;html=1;fillColor=none;" parent="1" edge="1">
          <mxGeometry relative="1" as="geometry">
            <mxPoint x="2020" y="1092" as="sourcePoint" />
            <mxPoint x="2090" y="1140" as="targetPoint" />
            <Array as="points">
              <mxPoint x="2020" y="1092" />
              <mxPoint x="2020" y="1140" />
            </Array>
          </mxGeometry>
        </mxCell>
        <mxCell id="-SBEFByG9hUMhP9GLKhF-29" style="edgeStyle=orthogonalEdgeStyle;rounded=0;orthogonalLoop=1;jettySize=auto;html=1;startArrow=classic;startFill=1;fillColor=none;" parent="1" edge="1">
          <mxGeometry relative="1" as="geometry">
            <mxPoint x="2390" y="1040" as="targetPoint" />
            <mxPoint x="2250" y="1040" as="sourcePoint" />
          </mxGeometry>
        </mxCell>
        <mxCell id="-SBEFByG9hUMhP9GLKhF-24" value="RequestTask&lt;br&gt;(v-thread)" style="rounded=0;whiteSpace=wrap;html=1;fontSize=16;fillColor=none;" parent="1" vertex="1">
          <mxGeometry x="2110" y="1010" width="120" height="60" as="geometry" />
        </mxCell>
        <mxCell id="-SBEFByG9hUMhP9GLKhF-30" style="edgeStyle=orthogonalEdgeStyle;rounded=0;orthogonalLoop=1;jettySize=auto;html=1;startArrow=classic;startFill=1;fillColor=none;" parent="1" edge="1">
          <mxGeometry relative="1" as="geometry">
            <mxPoint x="2390" y="1140" as="targetPoint" />
            <mxPoint x="2250" y="1140" as="sourcePoint" />
          </mxGeometry>
        </mxCell>
        <mxCell id="-SBEFByG9hUMhP9GLKhF-25" value="RequestTask&lt;br&gt;(v-thread)" style="rounded=0;whiteSpace=wrap;html=1;fontSize=16;fillColor=none;" parent="1" vertex="1">
          <mxGeometry x="2110" y="1110" width="120" height="60" as="geometry" />
        </mxCell>
        <mxCell id="-SBEFByG9hUMhP9GLKhF-26" value="Database&lt;br&gt;Connection&lt;br&gt;Pool" style="rounded=0;whiteSpace=wrap;html=1;fontSize=16;fillColor=none;" parent="1" vertex="1">
          <mxGeometry x="2400" y="810" width="160" height="360" as="geometry" />
        </mxCell>
        <mxCell id="-SBEFByG9hUMhP9GLKhF-31" value="Database" style="shape=datastore;whiteSpace=wrap;html=1;fillColor=none;" parent="1" vertex="1">
          <mxGeometry x="2730" y="900" width="160" height="180" as="geometry" />
        </mxCell>
        <mxCell id="-SBEFByG9hUMhP9GLKhF-34" value="" style="shape=flexArrow;endArrow=classic;startArrow=classic;html=1;rounded=0;fillColor=none;" parent="1" edge="1">
          <mxGeometry width="100" height="100" relative="1" as="geometry">
            <mxPoint x="2580" y="990" as="sourcePoint" />
            <mxPoint x="2720" y="990" as="targetPoint" />
          </mxGeometry>
        </mxCell>
        <mxCell id="-SBEFByG9hUMhP9GLKhF-35" value="&lt;span style=&quot;font-size: 24px;&quot;&gt;...&lt;/span&gt;" style="text;html=1;strokeColor=none;fillColor=none;align=center;verticalAlign=middle;whiteSpace=wrap;rounded=0;fontSize=24;" parent="1" vertex="1">
          <mxGeometry x="2140" y="870" width="60" height="30" as="geometry" />
        </mxCell>
        <mxCell id="-SBEFByG9hUMhP9GLKhF-36" value="&lt;span style=&quot;font-size: 24px;&quot;&gt;...&lt;/span&gt;" style="text;html=1;strokeColor=none;fillColor=none;align=center;verticalAlign=middle;whiteSpace=wrap;rounded=0;fontSize=24;" parent="1" vertex="1">
          <mxGeometry x="2140" y="1070" width="60" height="30" as="geometry" />
        </mxCell>
        <mxCell id="-SBEFByG9hUMhP9GLKhF-38" value="&lt;span style=&quot;font-size: 14px;&quot;&gt;socket&lt;/span&gt;" style="text;html=1;strokeColor=none;fillColor=none;align=center;verticalAlign=middle;whiteSpace=wrap;rounded=0;fontSize=14;" parent="1" vertex="1">
          <mxGeometry x="1380" y="960" width="70" height="30" as="geometry" />
        </mxCell>
        <mxCell id="-SBEFByG9hUMhP9GLKhF-41" value="&lt;span style=&quot;font-size: 14px;&quot;&gt;spawns&lt;/span&gt;" style="text;html=1;strokeColor=none;fillColor=none;align=center;verticalAlign=middle;whiteSpace=wrap;rounded=0;fontSize=14;" parent="1" vertex="1">
          <mxGeometry x="1610" y="960" width="70" height="30" as="geometry" />
        </mxCell>
        <mxCell id="-SBEFByG9hUMhP9GLKhF-42" value="&lt;span style=&quot;font-size: 14px;&quot;&gt;spawns&lt;/span&gt;" style="text;html=1;strokeColor=none;fillColor=none;align=center;verticalAlign=middle;whiteSpace=wrap;rounded=0;fontSize=14;" parent="1" vertex="1">
          <mxGeometry x="1950" y="860" width="70" height="30" as="geometry" />
        </mxCell>
        <mxCell id="-SBEFByG9hUMhP9GLKhF-43" value="&lt;span style=&quot;font-size: 14px;&quot;&gt;spawns&lt;/span&gt;" style="text;html=1;strokeColor=none;fillColor=none;align=center;verticalAlign=middle;whiteSpace=wrap;rounded=0;fontSize=14;" parent="1" vertex="1">
          <mxGeometry x="1950" y="1060" width="70" height="30" as="geometry" />
        </mxCell>
        <mxCell id="4jTjWkwYUUFSaiAf3Rvd-4" style="edgeStyle=orthogonalEdgeStyle;rounded=0;orthogonalLoop=1;jettySize=auto;html=1;endArrow=none;endFill=0;startArrow=classic;startFill=1;fillColor=none;" parent="1" edge="1">
          <mxGeometry relative="1" as="geometry">
            <mxPoint x="1380" y="1240" as="targetPoint" />
            <mxPoint x="1850" y="1190" as="sourcePoint" />
            <Array as="points">
              <mxPoint x="1850" y="1240" />
            </Array>
          </mxGeometry>
        </mxCell>
        <mxCell id="4jTjWkwYUUFSaiAf3Rvd-5" value="&lt;span style=&quot;font-size: 14px;&quot;&gt;request&lt;/span&gt;" style="text;html=1;strokeColor=none;fillColor=none;align=center;verticalAlign=middle;whiteSpace=wrap;rounded=0;fontSize=14;" parent="1" vertex="1">
          <mxGeometry x="1380" y="1210" width="70" height="30" as="geometry" />
        </mxCell>
        <mxCell id="4jTjWkwYUUFSaiAf3Rvd-8" value="&lt;span style=&quot;font-size: 14px;&quot;&gt;response / close socket&lt;/span&gt;" style="text;html=1;strokeColor=none;fillColor=none;align=center;verticalAlign=middle;whiteSpace=wrap;rounded=0;fontSize=14;" parent="1" vertex="1">
          <mxGeometry x="1380" y="710" width="170" height="30" as="geometry" />
        </mxCell>
        <mxCell id="vm0kRCEVvRRhXZzdVqyy-2" value="ConnectionTask&lt;br&gt;(v-thread)" style="rounded=0;whiteSpace=wrap;html=1;fontSize=16;fillColor=none;" parent="1" vertex="1">
          <mxGeometry x="1380" y="1460" width="160" height="60" as="geometry" />
        </mxCell>
        <mxCell id="dnYBnsJlJMFcw7EFnt2x-13" style="edgeStyle=orthogonalEdgeStyle;rounded=0;orthogonalLoop=1;jettySize=auto;html=1;" parent="1" edge="1">
          <mxGeometry relative="1" as="geometry">
            <mxPoint x="1550" y="1400" as="targetPoint" />
            <mxPoint x="1750" y="1440" as="sourcePoint" />
            <Array as="points">
              <mxPoint x="1750" y="1400" />
              <mxPoint x="1610" y="1400" />
            </Array>
          </mxGeometry>
        </mxCell>
        <mxCell id="vm0kRCEVvRRhXZzdVqyy-3" value="Dispatcher" style="rounded=0;whiteSpace=wrap;html=1;fontSize=16;fillColor=none;" parent="1" vertex="1">
          <mxGeometry x="1690" y="1460" width="120" height="60" as="geometry" />
        </mxCell>
        <mxCell id="vm0kRCEVvRRhXZzdVqyy-4" value="Servlet" style="rounded=0;whiteSpace=wrap;html=1;fontSize=16;fillColor=none;" parent="1" vertex="1">
          <mxGeometry x="1890" y="1460" width="120" height="60" as="geometry" />
        </mxCell>
        <mxCell id="vm0kRCEVvRRhXZzdVqyy-5" value="Session&lt;br&gt;Service" style="rounded=0;whiteSpace=wrap;html=1;fontSize=16;fillColor=none;" parent="1" vertex="1">
          <mxGeometry x="1890" y="1600" width="120" height="60" as="geometry" />
        </mxCell>
        <mxCell id="vm0kRCEVvRRhXZzdVqyy-6" value="Database&lt;br&gt;Connection Pool" style="rounded=0;whiteSpace=wrap;html=1;fontSize=16;fillColor=none;" parent="1" vertex="1">
          <mxGeometry x="2290" y="1460" width="160" height="60" as="geometry" />
        </mxCell>
        <mxCell id="dnYBnsJlJMFcw7EFnt2x-1" value="Cache" style="rounded=0;whiteSpace=wrap;html=1;fontSize=16;fillColor=none;" parent="1" vertex="1">
          <mxGeometry x="2090" y="1460" width="120" height="60" as="geometry" />
        </mxCell>
        <mxCell id="dnYBnsJlJMFcw7EFnt2x-4" value="" style="endArrow=classic;startArrow=classic;html=1;rounded=0;" parent="1" edge="1">
          <mxGeometry width="50" height="50" relative="1" as="geometry">
            <mxPoint x="1820" y="1490" as="sourcePoint" />
            <mxPoint x="1880" y="1490" as="targetPoint" />
          </mxGeometry>
        </mxCell>
        <mxCell id="dnYBnsJlJMFcw7EFnt2x-5" value="" style="endArrow=classic;startArrow=classic;html=1;rounded=0;" parent="1" edge="1">
          <mxGeometry width="50" height="50" relative="1" as="geometry">
            <mxPoint x="1950" y="1590" as="sourcePoint" />
            <mxPoint x="1950" y="1530" as="targetPoint" />
          </mxGeometry>
        </mxCell>
        <mxCell id="dnYBnsJlJMFcw7EFnt2x-6" value="" style="endArrow=classic;startArrow=classic;html=1;rounded=0;" parent="1" edge="1">
          <mxGeometry width="50" height="50" relative="1" as="geometry">
            <mxPoint x="2020" y="1490" as="sourcePoint" />
            <mxPoint x="2080" y="1490" as="targetPoint" />
          </mxGeometry>
        </mxCell>
        <mxCell id="dnYBnsJlJMFcw7EFnt2x-7" value="" style="endArrow=classic;startArrow=classic;html=1;rounded=0;" parent="1" edge="1">
          <mxGeometry width="50" height="50" relative="1" as="geometry">
            <mxPoint x="2220" y="1490" as="sourcePoint" />
            <mxPoint x="2280" y="1490" as="targetPoint" />
          </mxGeometry>
        </mxCell>
        <mxCell id="dnYBnsJlJMFcw7EFnt2x-9" value="RequestTask&lt;br style=&quot;border-color: var(--border-color); font-size: 16px;&quot;&gt;&lt;span style=&quot;font-size: 16px;&quot;&gt;(v-thread)&lt;/span&gt;" style="text;html=1;strokeColor=none;fillColor=none;align=center;verticalAlign=middle;whiteSpace=wrap;rounded=0;fontSize=16;" parent="1" vertex="1">
          <mxGeometry x="1680" y="1590" width="140" height="80" as="geometry" />
        </mxCell>
        <mxCell id="dnYBnsJlJMFcw7EFnt2x-12" value="" style="endArrow=classic;html=1;rounded=0;exitX=0;exitY=1;exitDx=0;exitDy=0;" parent="1" source="dnYBnsJlJMFcw7EFnt2x-14" edge="1">
          <mxGeometry width="50" height="50" relative="1" as="geometry">
            <mxPoint x="1530" y="1490" as="sourcePoint" />
            <mxPoint x="1670" y="1490" as="targetPoint" />
          </mxGeometry>
        </mxCell>
        <mxCell id="dnYBnsJlJMFcw7EFnt2x-14" value="&lt;span style=&quot;font-size: 14px;&quot;&gt;spawn(request)&lt;/span&gt;" style="text;html=1;strokeColor=none;fillColor=none;align=center;verticalAlign=middle;whiteSpace=wrap;rounded=0;fontSize=14;" parent="1" vertex="1">
          <mxGeometry x="1550" y="1460" width="120" height="30" as="geometry" />
        </mxCell>
        <mxCell id="dnYBnsJlJMFcw7EFnt2x-15" value="&lt;span style=&quot;font-size: 14px;&quot;&gt;response; thread dies&lt;/span&gt;" style="text;html=1;strokeColor=none;fillColor=none;align=center;verticalAlign=middle;whiteSpace=wrap;rounded=0;fontSize=14;" parent="1" vertex="1">
          <mxGeometry x="1560" y="1370" width="150" height="30" as="geometry" />
        </mxCell>
        <mxCell id="3OkF8W3w3wdpFqDRuBMn-1" value="ServerTask" style="rounded=0;whiteSpace=wrap;html=1;fontSize=16;fillColor=none;" parent="1" vertex="1">
          <mxGeometry x="2920" y="1440" width="160" height="60" as="geometry" />
        </mxCell>
        <mxCell id="3OkF8W3w3wdpFqDRuBMn-2" value="ConnectionTask" style="rounded=0;whiteSpace=wrap;html=1;fontSize=16;fillColor=none;" parent="1" vertex="1">
          <mxGeometry x="3160" y="1440" width="160" height="60" as="geometry" />
        </mxCell>
        <mxCell id="3OkF8W3w3wdpFqDRuBMn-3" value="ConnectionTask" style="rounded=0;whiteSpace=wrap;html=1;fontSize=16;fillColor=none;" parent="1" vertex="1">
          <mxGeometry x="3160" y="1540" width="160" height="60" as="geometry" />
        </mxCell>
        <mxCell id="3OkF8W3w3wdpFqDRuBMn-4" value="&lt;span style=&quot;font-size: 24px;&quot;&gt;...&lt;/span&gt;" style="text;html=1;strokeColor=none;fillColor=none;align=center;verticalAlign=middle;whiteSpace=wrap;rounded=0;fontSize=24;" parent="1" vertex="1">
          <mxGeometry x="3210" y="1500" width="60" height="30" as="geometry" />
        </mxCell>
        <mxCell id="3OkF8W3w3wdpFqDRuBMn-5" value="RequestTask" style="rounded=0;whiteSpace=wrap;html=1;fontSize=16;fillColor=none;" parent="1" vertex="1">
          <mxGeometry x="2920" y="1640" width="160" height="60" as="geometry" />
        </mxCell>
        <mxCell id="3OkF8W3w3wdpFqDRuBMn-6" value="RequestTask" style="rounded=0;whiteSpace=wrap;html=1;fontSize=16;fillColor=none;" parent="1" vertex="1">
          <mxGeometry x="2920" y="1740" width="160" height="60" as="geometry" />
        </mxCell>
        <mxCell id="3OkF8W3w3wdpFqDRuBMn-7" value="&lt;span style=&quot;font-size: 24px;&quot;&gt;...&lt;/span&gt;" style="text;html=1;strokeColor=none;fillColor=none;align=center;verticalAlign=middle;whiteSpace=wrap;rounded=0;fontSize=24;" parent="1" vertex="1">
          <mxGeometry x="2970" y="1700" width="60" height="30" as="geometry" />
        </mxCell>
        <mxCell id="3OkF8W3w3wdpFqDRuBMn-8" value="Main" style="rounded=0;whiteSpace=wrap;html=1;fontSize=16;fillColor=none;" parent="1" vertex="1">
          <mxGeometry x="2920" y="1540" width="160" height="60" as="geometry" />
        </mxCell>
        <mxCell id="3OkF8W3w3wdpFqDRuBMn-10" value="LogTask" style="rounded=0;whiteSpace=wrap;html=1;fontSize=16;fillColor=none;" parent="1" vertex="1">
          <mxGeometry x="3160" y="1640" width="160" height="60" as="geometry" />
        </mxCell>
        <mxCell id="3OkF8W3w3wdpFqDRuBMn-11" value="LogTask" style="rounded=0;whiteSpace=wrap;html=1;fontSize=16;fillColor=none;" parent="1" vertex="1">
          <mxGeometry x="3160" y="1740" width="160" height="60" as="geometry" />
        </mxCell>
        <mxCell id="3OkF8W3w3wdpFqDRuBMn-12" value="&lt;span style=&quot;font-size: 24px;&quot;&gt;...&lt;/span&gt;" style="text;html=1;strokeColor=none;fillColor=none;align=center;verticalAlign=middle;whiteSpace=wrap;rounded=0;fontSize=24;" parent="1" vertex="1">
          <mxGeometry x="3210" y="1700" width="60" height="30" as="geometry" />
        </mxCell>
      </root>
    </mxGraphModel>
  </diagram>
  <diagram id="SAjrrHvIAttpc6QXEfCE" name="Page-3">
    <mxGraphModel dx="1596" dy="822" grid="1" gridSize="10" guides="0" tooltips="1" connect="1" arrows="1" fold="1" page="1" pageScale="1" pageWidth="4681" pageHeight="3300" math="0" shadow="0">
      <root>
        <mxCell id="0" />
        <mxCell id="1" parent="0" />
        <mxCell id="XkMZ_VXE7uhifTnnT4Qj-12" style="edgeStyle=orthogonalEdgeStyle;rounded=0;orthogonalLoop=1;jettySize=auto;html=1;" edge="1" parent="1">
          <mxGeometry relative="1" as="geometry">
            <mxPoint x="1370" y="430" as="sourcePoint" />
            <mxPoint x="1370" y="490" as="targetPoint" />
          </mxGeometry>
        </mxCell>
        <mxCell id="XkMZ_VXE7uhifTnnT4Qj-3" value="Deserializing" style="ellipse;whiteSpace=wrap;html=1;aspect=fixed;" vertex="1" parent="1">
          <mxGeometry x="1320" y="320" width="100" height="100" as="geometry" />
        </mxCell>
        <mxCell id="XkMZ_VXE7uhifTnnT4Qj-5" value="" style="shape=flexArrow;endArrow=classic;html=1;rounded=0;" edge="1" parent="1">
          <mxGeometry width="50" height="50" relative="1" as="geometry">
            <mxPoint x="1240" y="370" as="sourcePoint" />
            <mxPoint x="1310" y="370" as="targetPoint" />
          </mxGeometry>
        </mxCell>
        <mxCell id="XkMZ_VXE7uhifTnnT4Qj-6" value="Processing" style="ellipse;whiteSpace=wrap;html=1;aspect=fixed;direction=south;" vertex="1" parent="1">
          <mxGeometry x="1500" y="320" width="100" height="100" as="geometry" />
        </mxCell>
        <mxCell id="XkMZ_VXE7uhifTnnT4Qj-7" style="edgeStyle=orthogonalEdgeStyle;rounded=0;orthogonalLoop=1;jettySize=auto;html=1;" edge="1" parent="1">
          <mxGeometry relative="1" as="geometry">
            <mxPoint x="1430" y="370" as="sourcePoint" />
            <mxPoint x="1490" y="370" as="targetPoint" />
          </mxGeometry>
        </mxCell>
        <mxCell id="XkMZ_VXE7uhifTnnT4Qj-9" style="edgeStyle=orthogonalEdgeStyle;rounded=0;orthogonalLoop=1;jettySize=auto;html=1;" edge="1" parent="1">
          <mxGeometry relative="1" as="geometry">
            <mxPoint x="1610" y="370" as="sourcePoint" />
            <mxPoint x="1670" y="370" as="targetPoint" />
          </mxGeometry>
        </mxCell>
        <mxCell id="XkMZ_VXE7uhifTnnT4Qj-10" value="Done" style="ellipse;shape=doubleEllipse;whiteSpace=wrap;html=1;aspect=fixed;" vertex="1" parent="1">
          <mxGeometry x="1680" y="320" width="100" height="100" as="geometry" />
        </mxCell>
        <mxCell id="XkMZ_VXE7uhifTnnT4Qj-13" value="Deserialization&lt;br&gt;error" style="ellipse;shape=doubleEllipse;whiteSpace=wrap;html=1;aspect=fixed;" vertex="1" parent="1">
          <mxGeometry x="1320" y="500" width="100" height="100" as="geometry" />
        </mxCell>
        <mxCell id="XkMZ_VXE7uhifTnnT4Qj-14" style="edgeStyle=orthogonalEdgeStyle;rounded=0;orthogonalLoop=1;jettySize=auto;html=1;" edge="1" parent="1">
          <mxGeometry relative="1" as="geometry">
            <mxPoint x="1550" y="430" as="sourcePoint" />
            <mxPoint x="1550" y="490" as="targetPoint" />
          </mxGeometry>
        </mxCell>
        <mxCell id="XkMZ_VXE7uhifTnnT4Qj-15" value="Processing&lt;br&gt;error" style="ellipse;shape=doubleEllipse;whiteSpace=wrap;html=1;aspect=fixed;" vertex="1" parent="1">
          <mxGeometry x="1500" y="500" width="100" height="100" as="geometry" />
        </mxCell>
      </root>
    </mxGraphModel>
  </diagram>
</mxfile>
